<?xml version="1.0" encoding="utf-8"?>
<!-- Generator: Adobe Illustrator 16.0.0, SVG Export Plug-In . SVG Version: 6.00 Build 0)  -->
<!DOCTYPE svg PUBLIC "-//W3C//DTD SVG 1.1//EN" "http://www.w3.org/Graphics/SVG/1.1/DTD/svg11.dtd">
<svg version="1.1" id="Layer_0_xA0_Image_1_" xmlns="http://www.w3.org/2000/svg" xmlns:xlink="http://www.w3.org/1999/xlink"
	 x="0px" y="0px" width="277.5px" height="249.75px" viewBox="0 0 277.5 249.75" enable-background="new 0 0 277.5 249.75"
	 xml:space="preserve">
<rect fill="#202020" width="277.5" height="249.75"/>
<path fill="#FFB92C" d="M115.988,138.408c1.358-0.693,2.701-1.411,4.074-2.075c3.962-1.919,4.097-2.317,1.771-5.983
	c-9.235-14.567-19.785-28.136-31.28-40.975c-6.035-6.738-12.123-13.426-18.272-20.061c-1.689-1.819-3.544-3.546-5.559-4.984
	c-4.878-3.476-9.622-3.11-14.17,0.744c-0.644,0.545-1.54,0.791-2.319,1.177c0.202-0.902,0.21-1.908,0.633-2.69
	c5.236-9.708,13.611-15.776,23.56-19.875c8.235-3.391,16.755-5.517,25.768-4.71c1.177,0.106,2.351,0.545,3.45,1.009
	c0.383,0.161,0.741,0.867,0.731,1.316c-0.009,0.317-0.607,0.739-1.026,0.906c-1.129,0.454-2.343,0.707-3.456,1.196
	c-4.913,2.155-7.875,5.744-8.296,11.262c-0.425,5.525,0.562,10.806,2.426,15.975c5.534,15.353,14.119,29.111,22.464,42.989
	c3.06,5.086,6.296,10.067,9.441,15.102c1.39,2.224,2.154,2.332,4.177,0.629c8.43-7.103,15.649-15.407,23.272-23.316
	c9.936-10.307,19.986-20.498,30.005-30.719c9.055-9.239,17.997-18.582,25.637-29.063c3.903-5.35,7.428-10.937,9.652-17.224
	c1.215-3.423,1.949-6.93,1.217-10.614c-0.699-3.519-2.666-6.186-5.754-7.743c-2.485-1.251-5.24-2.032-7.947-2.763
	c-2.13-0.576-4.373-0.729-6.556-1.134c-0.604-0.112-1.162-0.454-1.744-0.689c-0.007-0.194-0.015-0.388-0.022-0.581
	c0.673-0.185,1.354-0.547,2.021-0.527c4.372,0.141,8.819-0.083,13.104,0.637c19.062,3.204,34.913,12.52,48.199,26.331
	c3.96,4.118,7.488,8.647,9.784,13.982c0.246,0.572,0.35,1.208,0.519,1.813c-0.127,0.08-0.256,0.161-0.383,0.241
	c-0.274-0.26-0.614-0.475-0.813-0.781c-5.396-8.332-13.29-10.252-22.508-8.813c-12.532,1.957-23.377,7.796-33.714,14.751
	c-11.546,7.768-21.587,17.203-30.595,27.78c-9.393,11.024-18.98,21.885-28.194,33.055c-3.359,4.074-5.899,8.826-8.781,13.287
	c-0.324,0.501-0.5,1.116-0.646,1.705c-1.219,4.873,0.154,7.233,5.073,8.108c2.371,0.427,4.883,0.604,7.268,0.334
	c10.647-1.195,21.179-0.365,31.617,1.693c8.211,1.615,16.333,3.678,24.53,5.365c6.696,1.38,13.424,1.789,20.052-0.53
	c5.177-1.814,9.533-4.908,13.533-8.588c5.599-5.144,10.039-11.246,14.48-17.353c0.617-0.848,1.362-1.604,2.05-2.4
	c0.156,0.105,0.316,0.208,0.472,0.313c-0.222,0.583-0.357,1.223-0.684,1.74c-3.202,5.063-6.367,10.151-9.674,15.146
	c-8.302,12.556-17.238,24.661-26.961,36.141c-6.447,7.614-13.385,14.817-20.159,22.148c-1.118,1.205-2.542,2.127-3.827,3.179
	c-0.165-0.163-0.333-0.325-0.498-0.488c0.434-0.647,0.856-1.304,1.306-1.94c2.538-3.563,5.174-7.064,7.585-10.712
	c0.96-1.456,1.584-3.188,2.101-4.87c1.892-6.136,0.553-10.396-4.886-13.748c-6.179-3.805-12.472-7.487-18.982-10.683
	c-10.119-4.962-20.887-8.089-32.055-9.674c-7.078-1.006-14.19-1.77-21.288-2.635c-0.438-0.051-0.905-0.122-1.325-0.028
	c-0.611,0.136-1.475,0.255-1.708,0.671c-0.219,0.398,0.085,1.266,0.41,1.763c7.699,11.811,15.229,23.718,21.76,36.229
	c1.379,2.642,1.388,2.77-1.338,3.826c-2.892,1.12-5.834,2.109-8.751,3.168c-1.15,0.417-1.657-0.145-1.881-1.185
	c-0.363-1.683-0.813-3.35-1.076-5.046c-1.385-8.904-4.632-17.198-8.37-25.308c-1.925-4.179-4.192-8.195-6.258-12.31
	c-0.765-1.52-1.906-2.211-3.595-2.151c-2.106,0.079-4.213,0.105-6.321,0.122c-0.781,0.006-1.563-0.09-2.344-0.139
	C116.074,138.889,116.031,138.649,115.988,138.408z"/>
<path fill="#FFB92C" d="M145.216,52.632c-0.724-0.511-1.507-0.952-2.157-1.543c-4.44-4.054-9.114-7.815-14.446-10.621
	c-3.575-1.88-7.332-3.417-11.015-5.091c-2.825-1.284-5.599-2.721-8.511-3.764c-4.783-1.716-9.621-3.304-14.506-4.692
	c-6.479-1.839-13.123-2.834-19.868-2.64c-18.415,0.527-33.701,7.548-45.479,21.961c-4.723,5.782-6.468,12.542-7.244,19.683
	c-0.855,7.875,0.254,15.637,2.052,23.266c1.434,6.084,2.967,12.197,5.136,18.046c2.677,7.21,5.791,14.289,9.191,21.188
	c6.818,13.832,15.05,26.823,24.959,38.652c4.87,5.813,10.102,11.36,15.533,16.658c5.718,5.58,12.94,8.721,20.547,10.872
	c12.669,3.58,25.376,3.114,37.998-0.211c8.975-2.366,17.353-6.125,24.884-11.645c0.797-0.586,1.727-0.992,2.594-1.479
	c0.127,0.151,0.253,0.307,0.378,0.458c-0.371,0.555-0.661,1.194-1.128,1.658c-11.143,11.06-22.027,22.414-34.696,31.801
	c-2.436,1.806-5.146,3.266-7.83,4.702c-2.195,1.175-4.005,0.615-5.962-0.909c-4.421-3.44-8.956-6.732-13.444-10.082
	c-18.825-14.049-36.229-29.645-51.726-47.338c-7.394-8.444-14.482-17.116-20.716-26.453c-8.582-12.848-15.667-26.444-20.042-41.333
	c-2.789-9.49-4.325-19.181-3.482-29.088c0.876-10.273,4.095-19.755,10.637-27.893c8.933-11.114,20.075-19.23,33.501-24.067
	c8.551-3.08,17.446-4.09,26.516-3.799c17.043,0.548,32.344,6.259,46.205,15.898c2.845,1.977,5.102,4.899,7.342,7.621
	c4.762,5.782,9.344,11.711,13.976,17.599c0.511,0.648,0.864,1.419,1.291,2.134C145.541,52.331,145.376,52.481,145.216,52.632z"/>
<path fill="#FFB92C" d="M184.274,211.166c-0.598,0.875-1.138,1.794-1.802,2.617c-6.202,7.716-13.708,14.043-21.504,20.043
	c-4.306,3.317-8.738,6.475-13.132,9.68c-2.197,1.602-3.08,1.743-5.213,0.02c-3.313-2.683-6.446-5.584-9.614-8.441
	c-0.927-0.835-1.191-1.986-0.347-2.992c4.816-5.739,7.279-12.62,9.714-19.541c0.425-1.202,1.205-2.391,2.112-3.299
	c5.142-5.135,10.371-10.187,15.574-15.262c1.775-1.732,2.643-1.575,3.407,0.714c0.932,2.786,1.913,5.568,2.613,8.418
	c1.988,8.098,9.242,10.105,16.085,8.056c0.55-0.165,1.091-0.364,1.637-0.546C183.962,210.811,184.117,210.986,184.274,211.166z"/>
</svg>
